<svg width="100" height="28" viewBox="0 0 100 28" fill="none" xmlns="http://www.w3.org/2000/svg">
<path d="M25.5432 18.7717L24.2531 9.83501C23.9216 7.53668 21.9213 5.83334 19.5658 5.83334H8.84199C6.48654 5.83334 4.48618 7.53668 4.15476 9.83501L2.86459 18.7717C2.60418 20.5683 4.01272 22.1667 5.84737 22.1667C6.65225 22.1667 7.40978 21.8517 7.97793 21.2917L10.653 18.6667H17.7548L20.418 21.2917C20.9862 21.8517 21.7556 22.1667 22.5486 22.1667C24.3951 22.1667 25.8036 20.5683 25.5432 18.7717ZM13.0203 12.8333H10.653V15.1667H9.46933V12.8333H7.10204V11.6667H9.46933V9.33334H10.653V11.6667H13.0203V12.8333ZM17.7548 11.6667C17.1038 11.6667 16.5712 11.1417 16.5712 10.5C16.5712 9.85834 17.1038 9.33334 17.7548 9.33334C18.4058 9.33334 18.9385 9.85834 18.9385 10.5C18.9385 11.1417 18.4058 11.6667 17.7548 11.6667ZM20.1221 15.1667C19.4711 15.1667 18.9385 14.6417 18.9385 14C18.9385 13.3583 19.4711 12.8333 20.1221 12.8333C20.7731 12.8333 21.3058 13.3583 21.3058 14C21.3058 14.6417 20.7731 15.1667 20.1221 15.1667Z" fill="#2A7AE4"/>
<path d="M72.3656 18.1C71.5607 18.8933 70.6233 19.29 69.5533 19.29C68.8904 19.29 68.2655 19.1593 67.6784 18.898C67.1007 18.6367 66.5942 18.2773 66.1586 17.82C65.7325 17.3627 65.3916 16.826 65.1359 16.21C64.8897 15.5847 64.7666 14.9127 64.7666 14.194C64.7666 13.5127 64.8897 12.8733 65.1359 12.276C65.3916 11.6693 65.7372 11.142 66.1728 10.694C66.6178 10.2367 67.1386 9.87733 67.7352 9.616C68.3317 9.34533 68.9804 9.21 69.6811 9.21C70.628 9.21 71.4376 9.406 72.1099 9.798C72.7917 10.19 73.3031 10.7173 73.6439 11.38L72.181 12.444C71.9253 11.9493 71.5655 11.5713 71.1015 11.31C70.647 11.0487 70.1498 10.918 69.6101 10.918C69.184 10.918 68.791 11.0067 68.4312 11.184C68.0808 11.3613 67.7778 11.604 67.5221 11.912C67.2759 12.22 67.0818 12.5747 66.9398 12.976C66.8072 13.3773 66.7409 13.802 66.7409 14.25C66.7409 14.7167 66.8167 15.1553 66.9682 15.566C67.1197 15.9673 67.328 16.3173 67.5931 16.616C67.8583 16.9147 68.1708 17.1527 68.5306 17.33C68.8999 17.498 69.2976 17.582 69.7237 17.582C70.699 17.582 71.5797 17.1293 72.3656 16.224V15.524H70.3345V14.11H73.9848V19.22H72.3656V18.1Z" fill="#464646"/>
<path d="M78.9222 19.36C78.3256 19.36 77.7859 19.262 77.303 19.066C76.82 18.8607 76.4081 18.5853 76.0672 18.24C75.7263 17.8947 75.4612 17.4933 75.2718 17.036C75.0919 16.5787 75.002 16.098 75.002 15.594C75.002 15.0713 75.0919 14.5813 75.2718 14.124C75.4517 13.6573 75.7121 13.2513 76.053 12.906C76.3939 12.5513 76.8058 12.2713 77.2888 12.066C77.7812 11.8607 78.3304 11.758 78.9364 11.758C79.5424 11.758 80.0822 11.8607 80.5556 12.066C81.0385 12.2713 81.4457 12.5467 81.7771 12.892C82.118 13.2373 82.3737 13.6387 82.5441 14.096C82.7241 14.5533 82.814 15.0293 82.814 15.524C82.814 15.6453 82.8093 15.762 82.7998 15.874C82.7998 15.986 82.7903 16.0793 82.7714 16.154H77.0189C77.0473 16.4433 77.1183 16.7 77.2319 16.924C77.3456 17.148 77.4923 17.3393 77.6723 17.498C77.8522 17.6567 78.0558 17.778 78.283 17.862C78.5103 17.946 78.747 17.988 78.9932 17.988C79.372 17.988 79.7271 17.8993 80.0585 17.722C80.3994 17.5353 80.6314 17.2927 80.7545 16.994L82.3879 17.442C82.1133 18.002 81.673 18.464 81.067 18.828C80.4704 19.1827 79.7555 19.36 78.9222 19.36ZM80.8539 14.936C80.8066 14.3853 80.5982 13.9467 80.2289 13.62C79.8691 13.284 79.4288 13.116 78.908 13.116C78.6523 13.116 78.4109 13.1627 78.1836 13.256C77.9658 13.34 77.7717 13.4613 77.6012 13.62C77.4308 13.7787 77.2888 13.97 77.1751 14.194C77.071 14.418 77.0094 14.6653 76.9905 14.936H80.8539Z" fill="#464646"/>
<path d="M87.425 19.36C86.8285 19.36 86.2887 19.262 85.8058 19.066C85.3229 18.8607 84.911 18.5853 84.5701 18.24C84.2292 17.8947 83.964 17.4933 83.7747 17.036C83.5947 16.5787 83.5048 16.098 83.5048 15.594C83.5048 15.0713 83.5947 14.5813 83.7747 14.124C83.9546 13.6573 84.215 13.2513 84.5559 12.906C84.8968 12.5513 85.3087 12.2713 85.7916 12.066C86.284 11.8607 86.8332 11.758 87.4392 11.758C88.0452 11.758 88.585 11.8607 89.0585 12.066C89.5414 12.2713 89.9486 12.5467 90.28 12.892C90.6209 13.2373 90.8765 13.6387 91.047 14.096C91.2269 14.5533 91.3168 15.0293 91.3168 15.524C91.3168 15.6453 91.3121 15.762 91.3026 15.874C91.3026 15.986 91.2932 16.0793 91.2742 16.154H85.5217C85.5501 16.4433 85.6211 16.7 85.7348 16.924C85.8484 17.148 85.9952 17.3393 86.1751 17.498C86.355 17.6567 86.5586 17.778 86.7858 17.862C87.0131 17.946 87.2498 17.988 87.496 17.988C87.8748 17.988 88.2299 17.8993 88.5613 17.722C88.9022 17.5353 89.1342 17.2927 89.2573 16.994L90.8907 17.442C90.6161 18.002 90.1758 18.464 89.5698 18.828C88.9732 19.1827 88.2583 19.36 87.425 19.36ZM89.3567 14.936C89.3094 14.3853 89.1011 13.9467 88.7318 13.62C88.3719 13.284 87.9316 13.116 87.4108 13.116C87.1551 13.116 86.9137 13.1627 86.6864 13.256C86.4686 13.34 86.2745 13.4613 86.1041 13.62C85.9336 13.7787 85.7916 13.97 85.678 14.194C85.5738 14.418 85.5123 14.6653 85.4933 14.936H89.3567Z" fill="#464646"/>
<path d="M97.5613 19.22L95.4023 16.042L94.3796 17.036V19.22H92.4763V9H94.3796V15.202L97.3624 11.898H99.3936L96.6238 15.006L99.5924 19.22H97.5613Z" fill="#464646"/>
<path d="M31.8492 9.28H33.5821L37.4171 19.22H35.4002L34.4627 16.742H30.9402L30.0169 19.22H28L31.8492 9.28ZM34.1076 15.384L32.7156 11.478L31.2669 15.384H34.1076Z" fill="#2A7AE4"/>
<path d="M38.3243 9H40.2276V16.868C40.2276 17.1387 40.2939 17.3487 40.4265 17.498C40.5591 17.6473 40.7485 17.722 40.9947 17.722C41.1083 17.722 41.2314 17.7033 41.3639 17.666C41.506 17.6287 41.6386 17.582 41.7617 17.526L42.0173 18.954C41.7617 19.0753 41.4634 19.1687 41.1225 19.234C40.7816 19.2993 40.4738 19.332 40.1992 19.332C39.6027 19.332 39.1387 19.178 38.8073 18.87C38.4853 18.5527 38.3243 18.1047 38.3243 17.526V9Z" fill="#2A7AE4"/>
<path d="M45.1192 19.36C44.3522 19.36 43.7698 19.1173 43.3721 18.632C42.9744 18.1467 42.7756 17.428 42.7756 16.476V11.884H44.6789V16.07C44.6789 17.1993 45.0908 17.764 45.9146 17.764C46.2839 17.764 46.639 17.6567 46.9799 17.442C47.3302 17.218 47.6143 16.882 47.8321 16.434V11.884H49.7354V17.064C49.7354 17.26 49.7685 17.4 49.8348 17.484C49.9106 17.568 50.0289 17.6147 50.1899 17.624V19.22C50.0005 19.2573 49.8396 19.2807 49.707 19.29C49.5839 19.2993 49.4703 19.304 49.3661 19.304C49.0252 19.304 48.7459 19.2293 48.5281 19.08C48.3198 18.9213 48.1967 18.7067 48.1588 18.436L48.1162 17.848C47.7847 18.352 47.3586 18.73 46.8378 18.982C46.317 19.234 45.7441 19.36 45.1192 19.36Z" fill="#2A7AE4"/>
<path d="M56.0584 13.508C55.4808 13.5173 54.9647 13.6293 54.5102 13.844C54.0557 14.0493 53.729 14.362 53.5301 14.782V19.22H51.6268V11.884H53.3739V13.452C53.5064 13.2 53.6627 12.976 53.8426 12.78C54.0225 12.5747 54.2166 12.3973 54.425 12.248C54.6333 12.0987 54.8416 11.9867 55.0499 11.912C55.2677 11.828 55.476 11.786 55.6749 11.786C55.779 11.786 55.8548 11.786 55.9021 11.786C55.959 11.786 56.011 11.7907 56.0584 11.8V13.508Z" fill="#2A7AE4"/>
<path d="M59.0537 19.36C58.6939 19.36 58.3577 19.304 58.0452 19.192C57.7328 19.0707 57.4629 18.9073 57.2356 18.702C57.0084 18.4873 56.8285 18.24 56.6959 17.96C56.5728 17.68 56.5112 17.372 56.5112 17.036C56.5112 16.6907 56.587 16.3733 56.7385 16.084C56.8995 15.7853 57.1173 15.5333 57.3919 15.328C57.6759 15.1227 58.0121 14.964 58.4003 14.852C58.7886 14.7307 59.2147 14.67 59.6787 14.67C60.0101 14.67 60.3321 14.698 60.6445 14.754C60.9665 14.81 61.2506 14.8893 61.4968 14.992V14.572C61.4968 14.0867 61.3547 13.7133 61.0706 13.452C60.796 13.1907 60.3841 13.06 59.8349 13.06C59.4372 13.06 59.049 13.13 58.6702 13.27C58.2914 13.41 57.9032 13.6153 57.5055 13.886L56.9231 12.696C57.8795 12.0707 58.9117 11.758 60.0196 11.758C61.0896 11.758 61.9181 12.0193 62.5052 12.542C63.1018 13.0553 63.4001 13.802 63.4001 14.782V17.064C63.4001 17.26 63.4332 17.4 63.4995 17.484C63.5752 17.568 63.6936 17.6147 63.8546 17.624V19.22C63.5326 19.2853 63.2533 19.318 63.0166 19.318C62.6567 19.318 62.3774 19.2387 62.1785 19.08C61.9892 18.9213 61.8708 18.7113 61.8234 18.45L61.7808 18.044C61.4494 18.4733 61.047 18.8 60.5735 19.024C60.1001 19.248 59.5935 19.36 59.0537 19.36ZM59.5935 17.988C59.9154 17.988 60.2184 17.932 60.5025 17.82C60.796 17.708 61.0233 17.5587 61.1843 17.372C61.3926 17.2133 61.4968 17.036 61.4968 16.84V16C61.2695 15.916 61.0233 15.8507 60.7582 15.804C60.493 15.748 60.2374 15.72 59.9912 15.72C59.4988 15.72 59.0963 15.832 58.7838 16.056C58.4714 16.2707 58.3151 16.546 58.3151 16.882C58.3151 17.1993 58.4382 17.4653 58.6844 17.68C58.9306 17.8853 59.2336 17.988 59.5935 17.988Z" fill="#2A7AE4"/>
</svg>
